HIERARCHY
ROOT Hips
{
	OFFSET 0.00 0.00 0.00
	CHANNELS 6 Xposition Yposition Zposition Xrotation Yrotation Zrotation
	JOINT Spine
	{
		OFFSET 0.00000 6.86429 0.00000
		CHANNELS 3 Xrotation Yrotation Zrotation
		JOINT Head
		{
			OFFSET 0.00000 15.39383 0.00000
			CHANNELS 3 Xrotation Yrotation Zrotation
			End Site
			{
				OFFSET 0.00000 4.52755 0.00000
			}
		}
		JOINT LeftShoulder
		{
			OFFSET 0.00000 9.31483 0.00000
			CHANNELS 3 Xrotation Yrotation Zrotation
			JOINT LeftArm
			{
				OFFSET 8.27540 0.00000 0.00000
				CHANNELS 3 Xrotation Yrotation Zrotation
				JOINT LeftForeArm
				{
					OFFSET 12.00220 0.00000 0.00000
					CHANNELS 3 Yrotation Zrotation Xrotation
					JOINT LeftHand
					{
						OFFSET 10.14463 0.00000 0.00000
						CHANNELS 3 Xrotation Yrotation Zrotation
						JOINT LeftHandThumb1
						{
							OFFSET 0.00000 0.00000 0.00000
							CHANNELS 3 Xrotation Zrotation Yrotation
							End Site
							{
								OFFSET 0.00000 0.00000 3.93700
							}
						}
						End Site
						{
							OFFSET 3.93700 0.00000 0.00000
						}
					}
				}
			}
		}
		JOINT RightShoulder
		{
			OFFSET 0.00000 9.31483 0.00000
			CHANNELS 3 Xrotation Yrotation Zrotation
			JOINT RightArm
			{
				OFFSET -8.27540 0.00000 0.00000
				CHANNELS 3 Xrotation Yrotation Zrotation
				JOINT RightForeArm
				{
					OFFSET -12.00220 0.00000 0.00000
					CHANNELS 3 Yrotation Zrotation Xrotation
					JOINT RightHand
					{
						OFFSET -10.14463 0.00000 0.00000
						CHANNELS 3 Xrotation Yrotation Zrotation
						JOINT RightHandThumb1
						{
							OFFSET 0.00000 0.00000 0.00000
							CHANNELS 3 Xrotation Zrotation Yrotation
							End Site
							{
								OFFSET 0.00000 0.00000 3.93700
							}
						}
						End Site
						{
							OFFSET -3.93700 0.00000 0.00000
						}
					}
				}
			}
		}
	}
	JOINT LeftUpLeg
	{
		OFFSET 4.11738 0.00000 0.00000
		CHANNELS 3 Xrotation Yrotation Zrotation
		JOINT LeftLeg
		{
			OFFSET 0.00000 -19.39432 0.00000
			CHANNELS 3 Xrotation Yrotation Zrotation
			JOINT LeftFoot
			{
				OFFSET 0.00000 -17.60956 0.00000
				CHANNELS 3 Xrotation Yrotation Zrotation
				JOINT LeftToeBase
				{
					OFFSET 0.00000 -1.57501 5.87804
					CHANNELS 3 Xrotation Yrotation Zrotation
					End Site
					{
						OFFSET 0.00000 0.00000 2.95275
					}
				}
			}
		}
	}
	JOINT RightUpLeg
	{
		OFFSET -4.11738 0.00000 0.00000
		CHANNELS 3 Xrotation Yrotation Zrotation
		JOINT RightLeg
		{
			OFFSET 0.00000 -19.39432 0.00000
			CHANNELS 3 Xrotation Yrotation Zrotation
			JOINT RightFoot
			{
				OFFSET 0.00000 -17.60956 0.00000
				CHANNELS 3 Xrotation Yrotation Zrotation
				JOINT RightToeBase
				{
					OFFSET 0.00000 -1.57501 5.87804
					CHANNELS 3 Xrotation Yrotation Zrotation
					End Site
					{
						OFFSET 0.00000 0.00000 2.95275
					}
				}
			}
		}
	}
}
MOTION
Frames: 20
Frame Time: 0.008333
 -3.0900 39.7067 -11.3855 4.8981 10.2660 2.2175 -1.3388 -9.3937 -4.0229 5.1964 -5.3774 3.7509 12.4429 22.2638 20.1906 -36.1597 -0.3917 -39.7955 -19.2769 -0.0000 14.6371 -1.0987 -9.5579 -6.5885 33.1476 -0.0000 26.2537 -4.6619 -10.5539 -26.5440 -26.5709 -10.7132 43.0572 11.3930 -0.0000 20.5917 0.0156 -6.5918 0.1358 32.8623 0.0000 -24.3270 -3.3831 8.6270 -1.7948 5.1901 -0.0000 0.0000 -7.1659 12.0003 -10.9528 11.5776 0.0000 -0.0000 -4.8988 0.2562 0.1166 6.3346 0.0000 0.0000 -11.8305 -24.0321 6.0272 12.3613 -0.0000 -0.0000
 -3.0919 39.7067 -11.3876 4.9044 10.2611 2.2176 -1.3345 -9.3900 -4.0374 5.1747 -5.3556 3.7725 12.4612 22.2750 20.1866 -36.1392 -0.3953 -39.8347 -19.2780 -0.0000 14.6494 -1.0969 -9.5475 -6.5850 33.1476 -0.0000 26.2537 -4.6698 -10.5371 -26.5249 -26.5750 -10.7136 43.0959 11.3489 -0.0000 20.5598 0.0099 -6.5850 0.0863 32.8623 0.0000 -24.3270 -3.3909 8.6160 -1.7930 5.1865 0.0000 0.0000 -7.1672 12.0267 -11.0092 11.6287 -0.0000 0.0000 -4.9111 0.2543 0.1184 6.3388 -0.0000 -0.0000 -11.8289 -24.0228 6.0367 12.3312 0.0000 -0.0000
 -3.0919 39.7062 -11.3875 4.9061 10.2607 2.2164 -1.3334 -9.3854 -4.0420 5.1697 -5.3517 3.7658 12.4716 22.2746 20.1779 -36.1152 -0.4016 -39.8785 -19.2628 -0.0000 14.7051 -1.0937 -9.5781 -6.5453 33.1476 -0.0000 26.2537 -4.6825 -10.5219 -26.5153 -26.5660 -10.7076 43.1335 11.3183 -0.0000 20.5927 0.0126 -6.6280 0.1093 32.8623 0.0000 -24.3270 -3.3912 8.6113 -1.7937 5.1844 -0.0000 0.0000 -7.1725 12.0262 -10.9785 11.5948 -0.0000 -0.0000 -4.9105 0.2462 0.1196 6.3332 0.0000 -0.0000 -11.8319 -24.0141 6.0165 12.3908 0.0000 -0.0000
 -3.0954 39.7063 -11.3903 4.9065 10.2551 2.2138 -1.3176 -9.3738 -4.0594 5.1520 -5.3377 3.7834 12.4716 22.2683 20.1797 -36.1017 -0.4077 -39.9165 -19.2374 -0.0000 14.6930 -1.0731 -9.5753 -6.4249 33.1476 -0.0000 26.2537 -4.6962 -10.5029 -26.4917 -26.5475 -10.7064 43.1783 11.2962 -0.0000 20.5604 0.0149 -6.6470 0.1288 32.8623 0.0000 -24.3270 -3.4019 8.6164 -1.7851 5.1940 0.0000 -0.0000 -7.1706 12.0285 -10.9816 11.6137 -0.0000 0.0000 -4.9204 0.2517 0.1269 6.3411 -0.0000 0.0000 -11.8213 -24.0154 6.0291 12.3688 -0.0000 0.0000
 -3.0957 39.7061 -11.3909 4.9064 10.2491 2.2120 -1.3115 -9.3656 -4.0612 5.1432 -5.2837 3.8060 12.4990 22.2685 20.1720 -36.0443 -0.4173 -39.9591 -19.2625 -0.0000 14.6078 -1.0823 -9.5658 -6.4858 33.1476 -0.0000 26.2537 -4.7047 -10.4810 -26.4829 -26.5400 -10.7179 43.2204 11.2867 -0.0000 20.5438 0.0212 -6.6224 0.1839 32.8623 0.0000 -24.3270 -3.3991 8.6213 -1.7844 5.1885 0.0000 -0.0000 -7.1686 12.0328 -10.9873 11.5956 0.0000 -0.0000 -4.9206 0.2472 0.1277 6.3421 -0.0000 -0.0000 -11.8494 -24.0135 6.1148 12.5112 -0.0000 0.0000
 -3.0974 39.7063 -11.3924 4.9007 10.2402 2.2130 -1.2996 -9.3611 -4.0731 5.1479 -5.2556 3.8056 12.5358 22.2688 20.1708 -36.0499 -0.3771 -40.0158 -19.2661 -0.0000 14.6936 -1.0935 -9.5616 -6.5549 33.1476 -0.0000 26.2537 -4.7002 -10.4474 -26.4650 -26.5390 -10.7181 43.2632 11.2440 -0.0000 20.5275 0.0152 -6.6172 0.1319 32.8623 0.0000 -24.3270 -3.3975 8.6307 -1.7816 5.1929 0.0000 -0.0000 -7.1739 12.0301 -10.9735 11.6171 0.0000 0.0000 -4.9179 0.2458 0.1312 6.3372 -0.0000 0.0000 -11.8193 -23.9999 6.0343 12.3623 -0.0000 -0.0000
 -3.0997 39.7061 -11.3941 4.8870 10.2404 2.2217 -1.2667 -9.3604 -4.1116 5.1288 -5.2953 3.8254 12.4810 22.2443 20.2186 -35.8914 -0.4039 -40.0575 -19.2854 -0.0000 14.6774 -1.0903 -9.6048 -6.5075 33.1476 -0.0000 26.2537 -4.7512 -10.4033 -26.4145 -26.4728 -10.6946 43.2817 11.2218 -0.0000 20.4348 0.0201 -6.6010 0.1750 32.8623 0.0000 -24.3270 -3.3869 8.6082 -1.7855 5.1913 -0.0000 -0.0000 -7.1657 12.0449 -10.9666 11.6072 0.0000 0.0000 -4.9104 0.2254 0.1264 6.3452 0.0000 -0.0000 -11.8495 -23.9837 6.0974 12.5437 -0.0000 0.0000
 -3.1019 39.7059 -11.3964 4.8838 10.2302 2.2185 -1.2468 -9.3508 -4.1226 5.1094 -5.2578 3.8684 12.4750 22.2384 20.2239 -35.7819 -0.4492 -40.1027 -19.2954 -0.0000 14.6883 -1.0734 -9.5789 -6.4240 33.1476 -0.0000 26.2537 -4.7521 -10.3784 -26.3848 -26.4656 -10.7053 43.3173 11.2350 -0.0000 20.3938 0.0256 -6.5928 0.2226 32.8623 0.0000 -24.3270 -3.3887 8.6135 -1.7776 5.1938 0.0000 -0.0000 -7.1697 12.0520 -10.9829 11.6133 0.0000 -0.0000 -4.9096 0.2330 0.1335 6.3398 -0.0000 0.0000 -11.8208 -23.9770 6.0280 12.3671 0.0000 0.0000
 -3.1040 39.7055 -11.3984 4.8705 10.2152 2.2192 -1.2119 -9.3238 -4.1379 5.0878 -5.2580 3.8794 12.4797 22.2219 20.2378 -35.7042 -0.4662 -40.1604 -19.3115 -0.0000 14.6869 -1.0663 -9.5618 -6.3931 33.1476 -0.0000 26.2537 -4.7866 -10.3479 -26.3640 -26.4129 -10.7081 43.3643 11.2458 -0.0000 20.3978 0.0265 -6.5781 0.2315 32.8623 0.0000 -24.3270 -3.3756 8.6128 -1.7733 5.1901 0.0000 0.0000 -7.1650 12.0650 -10.9945 11.6131 -0.0000 0.0000 -4.9029 0.2460 0.1393 6.3437 -0.0000 -0.0000 -11.8205 -23.9763 6.0164 12.3200 -0.0000 -0.0000
 -3.1067 39.7052 -11.4002 4.8662 10.2084 2.2172 -1.1952 -9.3157 -4.1505 5.0789 -5.2436 3.9003 12.5176 22.2253 20.2395 -35.6204 -0.4876 -40.2253 -19.3513 -0.0000 14.6783 -1.0709 -9.5860 -6.4049 33.1476 -0.0000 26.2537 -4.7844 -10.3272 -26.3427 -26.4161 -10.7162 43.4132 11.2501 -0.0000 20.4227 0.0286 -6.6207 0.2481 32.8623 0.0000 -24.3270 -3.3775 8.6264 -1.7662 5.1956 -0.0000 0.0000 -7.1698 12.0592 -11.0053 11.6073 0.0000 -0.0000 -4.9019 0.2496 0.1449 6.3442 0.0000 0.0000 -11.8407 -23.9780 6.1040 12.5635 -0.0000 0.0000
 -3.1085 39.7046 -11.4009 4.8599 10.2025 2.2186 -1.1717 -9.2832 -4.1774 5.0598 -5.2379 3.9686 12.5109 22.2122 20.2730 -35.6029 -0.4631 -40.3244 -19.3556 -0.0000 14.7785 -1.0610 -9.5473 -6.3714 33.1476 -0.0000 26.2537 -4.8278 -10.3029 -26.3001 -26.3547 -10.6977 43.4351 11.2465 -0.0000 20.4027 0.0353 -6.6692 0.3037 32.8623 0.0000 -24.3270 -3.3713 8.6193 -1.7645 5.1946 0.0000 -0.0000 -7.1736 12.0669 -10.9792 11.5990 -0.0000 0.0000 -4.8955 0.2403 0.1470 6.3380 0.0000 -0.0000 -11.8148 -23.9520 6.0156 12.3286 -0.0000 0.0000
 -3.1106 39.7043 -11.4030 4.8388 10.1907 2.2241 -1.1257 -9.2591 -4.2001 5.0308 -5.2365 4.0224 12.4784 22.1626 20.2981 -35.3758 -0.5224 -40.3622 -19.4098 -0.0000 14.6478 -1.0591 -9.6028 -6.3239 33.1476 -0.0000 26.2537 -4.8415 -10.2822 -26.2683 -26.3534 -10.7104 43.4785 11.2564 -0.0000 20.4057 0.0352 -6.6837 0.3022 32.8623 0.0000 -24.3270 -3.3532 8.6187 -1.7628 5.1925 0.0000 0.0000 -7.1708 12.0800 -11.0082 11.6069 -0.0000 0.0000 -4.8812 0.2414 0.1476 6.3394 0.0000 -0.0000 -11.8150 -23.9422 6.0203 12.3739 0.0000 -0.0000
 -3.1130 39.7042 -11.4054 4.8347 10.1908 2.2199 -1.1047 -9.2545 -4.2111 5.0171 -5.2315 4.0194 12.5176 22.1607 20.2927 -35.3127 -0.5140 -40.4507 -19.4764 -0.0000 14.6109 -1.0341 -9.4992 -6.2417 33.1476 -0.0000 26.2537 -4.8410 -10.2592 -26.2351 -26.3436 -10.7042 43.5194 11.2736 -0.0000 20.3719 0.0299 -6.6550 0.2576 32.8623 0.0000 -24.3270 -3.3526 8.6140 -1.7558 5.1880 -0.0000 0.0000 -7.1655 12.0821 -11.0135 11.5842 -0.0000 -0.0000 -4.8795 0.2326 0.1561 6.3358 -0.0000 0.0000 -11.8049 -23.9396 6.0217 12.3431 -0.0000 -0.0000
 -3.1157 39.7037 -11.4079 4.8070 10.1842 2.2224 -1.0446 -9.2293 -4.2397 4.9853 -5.2717 4.0786 12.5061 22.1412 20.3417 -35.1938 -0.4949 -40.5704 -19.5633 -0.0000 14.6159 -1.0491 -9.5781 -6.2803 33.1476 -0.0000 26.2537 -4.8919 -10.2163 -26.1741 -26.2733 -10.7080 43.5321 11.3263 -0.0000 20.2966 0.0331 -6.6465 0.2862 32.8623 0.0000 -24.3270 -3.3341 8.6159 -1.7487 5.1971 -0.0000 0.0000 -7.1743 12.0775 -10.9794 11.5636 -0.0000 0.0000 -4.8562 0.2280 0.1616 6.3354 0.0000 -0.0000 -11.8055 -23.9341 6.0298 12.3629 0.0000 -0.0000
 -3.1176 39.7033 -11.4114 4.8003 10.1797 2.2245 -1.0133 -9.2134 -4.2593 4.9599 -5.2796 4.1230 12.5119 22.1215 20.3477 -35.0470 -0.5283 -40.6569 -19.6343 -0.0000 14.5291 -1.0296 -9.5196 -6.2019 33.1476 -0.0000 26.2537 -4.9224 -10.1911 -26.1438 -26.2492 -10.7089 43.5866 11.3668 -0.0000 20.1841 0.0269 -6.7110 0.2299 32.8623 0.0000 -24.3270 -3.3373 8.6155 -1.7485 5.2059 0.0000 0.0000 -7.1689 12.0843 -10.9785 11.5585 -0.0000 0.0000 -4.8583 0.2367 0.1630 6.3413 -0.0000 -0.0000 -11.8112 -23.9405 6.0170 12.3547 0.0000 -0.0000
 -3.1195 39.7033 -11.4162 4.8001 10.1353 2.2362 -0.9817 -9.1618 -4.3107 4.9252 -5.3591 4.1730 12.4721 22.0984 20.4134 -34.9355 -0.4254 -40.8096 -19.7922 -0.0000 14.6450 -1.0086 -9.4537 -6.1179 33.1476 -0.0000 26.2537 -4.9822 -10.1467 -26.0632 -26.1779 -10.6944 43.5982 11.4319 -0.0000 20.0834 0.0229 -6.7254 0.1957 32.8623 0.0000 -24.3270 -3.3340 8.6340 -1.7567 5.1996 0.0000 -0.0000 -7.1660 12.1183 -11.0089 11.6008 0.0000 0.0000 -4.8772 0.2817 0.1560 6.3626 0.0000 -0.0000 -11.8393 -23.9440 6.1002 12.5010 -0.0000 0.0000
 -3.1205 39.7032 -11.4197 4.8010 10.1270 2.2347 -0.9686 -9.1484 -4.3112 4.9143 -5.3003 4.2125 12.5204 22.0842 20.4109 -34.6935 -0.5160 -40.9275 -19.8999 -0.0000 14.5081 -0.9956 -9.3802 -6.0861 33.1476 -0.0000 26.2537 -4.9878 -10.1217 -26.0380 -26.1758 -10.7209 43.6515 11.5325 -0.0000 19.9134 0.0208 -6.7105 0.1780 32.8623 0.0000 -24.3270 -3.3409 8.6303 -1.7554 5.2008 0.0000 -0.0000 -7.1601 12.1184 -10.9824 11.5824 0.0000 -0.0000 -4.8839 0.2904 0.1582 6.3610 -0.0000 0.0000 -11.8078 -23.9344 6.0306 12.3640 0.0000 -0.0000
 -3.1226 39.7035 -11.4221 4.7999 10.1227 2.2313 -0.9527 -9.1428 -4.3182 4.9049 -5.2902 4.2419 12.5685 22.0767 20.4010 -34.4847 -0.5948 -41.0497 -19.9839 -0.0000 14.4479 -0.9856 -9.4635 -5.9734 33.1476 -0.0000 26.2537 -5.0108 -10.1014 -26.0087 -26.1731 -10.7194 43.7177 11.6016 -0.0000 19.7417 0.0125 -6.7890 0.1055 32.8623 0.0000 -24.3270 -3.3452 8.6207 -1.7491 5.2032 0.0000 -0.0000 -7.1726 12.1325 -10.9760 11.6154 0.0000 0.0000 -4.8873 0.2912 0.1646 6.3594 -0.0000 -0.0000 -11.7958 -23.9396 6.0365 12.3716 -0.0000 0.0000
 -3.1267 39.7038 -11.4255 4.7963 10.1282 2.2226 -0.9288 -9.1506 -4.3383 4.8906 -5.3059 4.3021 12.5668 22.0629 20.4213 -34.1639 -0.7605 -41.1673 -20.0599 -0.0000 14.3379 -0.9616 -9.5299 -5.7888 33.1476 -0.0000 26.2537 -5.0340 -10.0703 -25.9376 -26.1792 -10.7176 43.7548 11.6892 -0.0000 19.6093 0.0043 -6.8263 0.0361 32.8623 0.0000 -24.3270 -3.3569 8.6201 -1.7332 5.2155 0.0000 -0.0000 -7.1619 12.1193 -10.9643 11.5767 -0.0000 0.0000 -4.8868 0.2720 0.1780 6.3536 -0.0000 -0.0000 -11.7852 -23.9235 6.0319 12.3715 0.0000 -0.0000
 -3.1275 39.7030 -11.4251 4.7554 10.1365 2.2289 -0.8619 -9.1582 -4.3581 4.8516 -5.3559 4.3472 12.5879 22.0686 20.4460 -33.7952 -0.9550 -41.3293 -20.2032 -0.0000 14.1780 -0.9362 -9.5177 -5.6438 33.1476 -0.0000 26.2537 -5.0635 -10.0560 -25.8798 -26.1698 -10.6748 43.8089 11.7500 -0.0000 19.2808 -0.0008 -6.7856 -0.0071 32.8623 0.0000 -24.3270 -3.3128 8.6096 -1.7316 5.2053 0.0000 0.0000 -7.1573 12.1193 -10.9877 11.5381 0.0000 -0.0000 -4.8409 0.2388 0.1787 6.3451 -0.0000 -0.0000 -11.8128 -23.9183 6.1123 12.5236 -0.0000 -0.0000
